<?xml version="1.0" encoding="UTF-8" standalone="no"?>
<!-- Created with Inkscape (http://www.inkscape.org/) -->

<svg
   width="128"
   height="128"
   viewBox="0 0 33.866667 33.866667"
   version="1.1"
   id="svg1"
   xml:space="preserve"
   inkscape:version="1.4.3 (0d15f75, 2025-12-25)"
   sodipodi:docname="icon.svg"
   xmlns:inkscape="http://www.inkscape.org/namespaces/inkscape"
   xmlns:sodipodi="http://sodipodi.sourceforge.net/DTD/sodipodi-0.dtd"
   xmlns="http://www.w3.org/2000/svg"
   xmlns:svg="http://www.w3.org/2000/svg"><sodipodi:namedview
     id="namedview1"
     pagecolor="#505050"
     bordercolor="#eeeeee"
     borderopacity="1"
     inkscape:showpageshadow="false"
     inkscape:pageopacity="0"
     inkscape:pagecheckerboard="true"
     inkscape:deskcolor="#505050"
     inkscape:document-units="mm"
     labelstyle="default"
     inkscape:zoom="2.8284271"
     inkscape:cx="63.816387"
     inkscape:cy="104.29825"
     inkscape:window-width="1366"
     inkscape:window-height="745"
     inkscape:window-x="-8"
     inkscape:window-y="148"
     inkscape:window-maximized="1"
     inkscape:current-layer="g1" /><defs
     id="defs1"><clipPath
       clipPathUnits="userSpaceOnUse"
       id="clipPath18"><path
         id="path18"
         style="fill:#303030;fill-opacity:1;fill-rule:evenodd;stroke-width:0.002;stroke-linecap:round;stroke-linejoin:round"
         d="m 16.905428,0.49402669 a 3.2272793,3.2272793 0 0 0 -1.687752,0.47852378 v -0.001035 l -0.02067,0.0118856 a 3.2272793,3.2272793 0 0 0 -0.0062,0.003617 L 3.8498941,7.5654297 l -0.00259,0.00465 A 3.2272793,3.2272793 0 0 0 2.256193,10.344588 l -0.0031,0.0052 0.014469,2.89388 -0.00207,0.0021 0.013436,10.268107 a 3.2272793,3.2272793 0 0 0 -5.159e-4,0.04134 3.2272793,3.2272793 0 0 0 5.159e-4,0.0072 v 0.01395 h 0.00103 a 3.2272793,3.2272793 0 0 0 1.6278076,2.77864 l -0.00103,0.0026 0.05116,0.02946 11.2949184,6.512781 0.0041,0.0026 h 10e-4 a 3.2272793,3.2272793 0 0 0 1.67535,0.469739 3.2272793,3.2272793 0 0 0 1.67535,-0.469739 h 0.001 l 0.0088,-0.0052 11.303185,-6.532937 0.103354,-0.05943 -0.0026,-0.0047 a 3.2272793,3.2272793 0 0 0 1.585952,-2.771407 3.2272793,3.2272793 0 0 0 -0.0021,-0.119889 3.2272793,3.2272793 0 0 0 0,-0.0016 l -0.01757,-13.016777 a 3.2272793,3.2272793 0 0 0 0.0011,-0.07751 3.2272793,3.2272793 0 0 0 -0.0011,-0.0155 v -0.0078 l -5.29e-4,-10e-4 a 3.2272793,3.2272793 0 0 0 -1.58905,-2.7517709 l -0.0041,-0.00723 -11.452014,-6.58926177 -0.0016,-0.001035 a 3.2272793,3.2272793 0 0 0 -0.0021,-0.001035 l -0.04134,-0.0237712 -0.0026,0.00155 A 3.2272793,3.2272793 0 0 0 16.905428,0.49402669 Z" /></clipPath><clipPath
       clipPathUnits="userSpaceOnUse"
       id="clipPath19"><path
         id="path19"
         style="fill:#303030;fill-opacity:1;fill-rule:evenodd;stroke-width:0.002;stroke-linecap:round;stroke-linejoin:round"
         d="m 16.905428,0.49402669 a 3.2272793,3.2272793 0 0 0 -1.687752,0.47852378 v -0.001035 l -0.02067,0.0118856 a 3.2272793,3.2272793 0 0 0 -0.0062,0.003617 L 3.8498941,7.5654297 l -0.00259,0.00465 A 3.2272793,3.2272793 0 0 0 2.256193,10.344588 l -0.0031,0.0052 0.014469,2.89388 -0.00207,0.0021 0.013436,10.268107 a 3.2272793,3.2272793 0 0 0 -5.159e-4,0.04134 3.2272793,3.2272793 0 0 0 5.159e-4,0.0072 v 0.01395 h 0.00103 a 3.2272793,3.2272793 0 0 0 1.6278076,2.77864 l -0.00103,0.0026 0.05116,0.02946 11.2949184,6.512781 0.0041,0.0026 h 10e-4 a 3.2272793,3.2272793 0 0 0 1.67535,0.469739 3.2272793,3.2272793 0 0 0 1.67535,-0.469739 h 0.001 l 0.0088,-0.0052 11.303185,-6.532937 0.103354,-0.05943 -0.0026,-0.0047 a 3.2272793,3.2272793 0 0 0 1.585952,-2.771407 3.2272793,3.2272793 0 0 0 -0.0021,-0.119889 3.2272793,3.2272793 0 0 0 0,-0.0016 l -0.01757,-13.016777 a 3.2272793,3.2272793 0 0 0 0.0011,-0.07751 3.2272793,3.2272793 0 0 0 -0.0011,-0.0155 v -0.0078 l -5.29e-4,-10e-4 a 3.2272793,3.2272793 0 0 0 -1.58905,-2.7517709 l -0.0041,-0.00723 -11.452014,-6.58926177 -0.0016,-0.001035 a 3.2272793,3.2272793 0 0 0 -0.0021,-0.001035 l -0.04134,-0.0237712 -0.0026,0.00155 A 3.2272793,3.2272793 0 0 0 16.905428,0.49402669 Z" /></clipPath><clipPath
       clipPathUnits="userSpaceOnUse"
       id="clipPath20"><path
         id="path20"
         style="display:inline;fill:#303030;fill-opacity:1;fill-rule:evenodd;stroke-width:0.002;stroke-linecap:round;stroke-linejoin:round"
         d="m 16.905428,0.49402669 a 3.2272793,3.2272793 0 0 0 -1.687752,0.47852378 v -0.001035 l -0.02067,0.0118856 a 3.2272793,3.2272793 0 0 0 -0.0062,0.003617 L 3.8498941,7.5654297 l -0.00259,0.00465 A 3.2272793,3.2272793 0 0 0 2.25618,10.344589 l -0.0031,0.0052 0.014469,2.89388 -0.00207,0.0021 0.013436,10.268108 a 3.2272793,3.2272793 0 0 0 -5.159e-4,0.04134 3.2272793,3.2272793 0 0 0 5.159e-4,0.0072 v 0.01395 h 0.00103 a 3.2272793,3.2272793 0 0 0 1.6278078,2.77864 l -0.00103,0.0026 0.05116,0.02946 11.2949182,6.512782 0.0041,0.0026 h 0.001 a 3.2272793,3.2272793 0 0 0 1.67535,0.469738 3.2272793,3.2272793 0 0 0 1.675349,-0.469738 h 0.001 l 0.0088,-0.0052 11.303186,-6.532934 0.103354,-0.05943 -0.0026,-0.0047 a 3.2272793,3.2272793 0 0 0 1.58595,-2.771407 3.2272793,3.2272793 0 0 0 -0.0021,-0.119889 3.2272793,3.2272793 0 0 0 0,-0.0015 L 31.58875,10.390583 a 3.2272793,3.2272793 0 0 0 0.0011,-0.07751 3.2272793,3.2272793 0 0 0 -0.0011,-0.0155 v -0.0078 l -5.29e-4,-10e-4 A 3.2272793,3.2272793 0 0 0 29.999122,7.5370116 l -0.0041,-0.00723 -11.452013,-6.58926181 -0.0016,-0.001035 a 3.2272793,3.2272793 0 0 0 -0.0021,-0.001035 l -0.04134,-0.0237712 -0.0026,0.00155 a 3.2272793,3.2272793 0 0 0 -1.589941,-0.4222019 z" /></clipPath><clipPath
       clipPathUnits="userSpaceOnUse"
       id="clipPath21"><path
         id="path21"
         style="display:inline;fill:#303030;fill-opacity:1;fill-rule:evenodd;stroke-width:0.002;stroke-linecap:round;stroke-linejoin:round"
         d="m 16.905428,0.49402669 a 3.2272793,3.2272793 0 0 0 -1.687752,0.47852378 v -0.001035 l -0.02067,0.0118856 a 3.2272793,3.2272793 0 0 0 -0.0062,0.003617 L 3.8498941,7.5654297 l -0.00259,0.00465 A 3.2272793,3.2272793 0 0 0 2.25618,10.344589 l -0.0031,0.0052 0.014469,2.89388 -0.00207,0.0021 0.013436,10.268108 a 3.2272793,3.2272793 0 0 0 -5.159e-4,0.04134 3.2272793,3.2272793 0 0 0 5.159e-4,0.0072 v 0.01395 h 0.00103 a 3.2272793,3.2272793 0 0 0 1.6278078,2.77864 l -0.00103,0.0026 0.05116,0.02946 11.2949182,6.512782 0.0041,0.0026 h 0.001 a 3.2272793,3.2272793 0 0 0 1.67535,0.469738 3.2272793,3.2272793 0 0 0 1.675349,-0.469738 h 0.001 l 0.0088,-0.0052 11.303186,-6.532934 0.103354,-0.05943 -0.0026,-0.0047 a 3.2272793,3.2272793 0 0 0 1.58595,-2.771407 3.2272793,3.2272793 0 0 0 -0.0021,-0.119889 3.2272793,3.2272793 0 0 0 0,-0.0015 L 31.58875,10.390583 a 3.2272793,3.2272793 0 0 0 0.0011,-0.07751 3.2272793,3.2272793 0 0 0 -0.0011,-0.0155 v -0.0078 l -5.29e-4,-10e-4 A 3.2272793,3.2272793 0 0 0 29.999122,7.5370116 l -0.0041,-0.00723 -11.452013,-6.58926181 -0.0016,-0.001035 a 3.2272793,3.2272793 0 0 0 -0.0021,-0.001035 l -0.04134,-0.0237712 -0.0026,0.00155 a 3.2272793,3.2272793 0 0 0 -1.589941,-0.4222019 z" /></clipPath></defs><g
     inkscape:label="Camada 1"
     inkscape:groupmode="layer"
     id="layer1"><g
       id="g1"
       transform="matrix(0.90597176,0,0,0.90597176,1.5934128,1.5924168)"><path
         id="path3"
         style="display:inline;fill:#000000;fill-opacity:1;fill-rule:evenodd;stroke:none;stroke-width:2.34886;stroke-linecap:round;stroke-linejoin:round;stroke-dasharray:none;stroke-opacity:1"
         d="M 31.610959,25.377994 16.958855,33.86686 2.2812298,25.422199 2.255708,8.4886723 16.907812,-1.9388546e-4 31.585438,8.4444675 Z"
         clip-path="url(#clipPath18)"
         transform="matrix(1.0614711,0,0,1.0614711,-1.0408284,-1.0408949)" /><path
         id="path1"
         style="display:inline;fill:#ffffff;fill-rule:evenodd;stroke-width:2.34885909;stroke-linecap:round;stroke-linejoin:round;stroke:none;stroke-opacity:1;stroke-dasharray:none"
         d="M 31.610959,25.377994 16.958855,33.86686 2.2812298,25.422199 2.255708,8.4886723 16.907812,-1.9388546e-4 31.585438,8.4444675 Z"
         clip-path="url(#clipPath18)" /><path
         style="display:inline;fill:#a5a5a5;fill-opacity:1;fill-rule:evenodd;stroke-width:0.263;stroke-linecap:round;stroke-linejoin:round"
         d="M 31.583873,8.4439288 2.2812711,25.421704 16.959444,33.867701 31.610747,25.378296 Z"
         id="path2"
         clip-path="url(#clipPath20)" /><path
         style="display:inline;fill:#7d7d7d;fill-opacity:1;fill-rule:evenodd;stroke:none;stroke-width:0.002;stroke-linecap:round;stroke-linejoin:round;stroke-dasharray:none;stroke-opacity:1"
         d="M 2.2807551,25.42067 16.958928,33.867701 31.611263,25.377262 16.958181,16.917301 Z"
         id="path4"
         clip-path="url(#clipPath21)" /><path
         id="text21"
         style="font-size:18.288px;font-family:'Fredoka One';-inkscape-font-specification:'Fredoka One';fill-rule:evenodd;stroke-width:0.233279;stroke-linecap:round;stroke-linejoin:round"
         d="m 23.089546,7.0494407 c -0.929471,0 -1.854425,0.2536927 -2.774507,0.7606771 -0.488208,0.2628808 -0.924549,0.5916651 -1.309481,0.9859863 -0.375544,0.3849326 -0.685556,0.8775923 -0.929659,1.4784629 -0.244104,0.591482 -0.366386,1.253615 -0.366386,1.985925 0,0.732311 0.122282,1.412699 0.366386,2.041736 0.253492,0.619647 0.572631,1.131597 0.957564,1.535307 0.384933,0.394321 0.81671,0.732233 1.295528,1.013891 0.488208,0.27227 0.958047,0.469128 1.4087,0.591179 0.460041,0.112663 0.910591,0.168982 1.351855,0.168982 0.450653,0 0.915412,-0.07509 1.39423,-0.225309 0.478819,-0.150218 0.793394,-0.271984 0.943612,-0.36587 0.159606,-0.09389 0.323482,-0.192832 0.492476,-0.296106 0.168995,-0.103274 0.314614,-0.220475 0.436666,-0.351916 0.131441,-0.131441 0.197404,-0.295833 0.197404,-0.492993 0,-0.197161 -0.103509,-0.459981 -0.310058,-0.788583 -0.33799,-0.525761 -0.652566,-0.788582 -0.943612,-0.788582 -0.131441,0 -0.356715,0.09387 -0.675928,0.281637 l -0.253214,0.182934 c -0.112664,0.07511 -0.300393,0.150201 -0.563273,0.225309 -0.253492,0.07511 -0.525958,0.112655 -0.817005,0.112655 -0.619647,0 -1.215816,-0.206502 -1.788521,-0.6196 -0.291047,-0.215938 -0.53053,-0.511741 -0.718302,-0.887285 -0.187772,-0.375544 -0.281637,-0.797676 -0.281637,-1.267106 0,-0.478818 0.09387,-0.906031 0.281637,-1.281575 0.187772,-0.375544 0.422691,-0.666783 0.704349,-0.873332 0.591482,-0.4224871 1.192215,-0.6335532 1.802474,-0.6335532 0.657202,0 1.182844,0.1593114 1.577165,0.4785242 0.309823,0.206549 0.549307,0.310058 0.718302,0.310058 0.291047,0 0.619831,-0.253692 0.985987,-0.7606769 0.19716,-0.2722694 0.295589,-0.5300094 0.295589,-0.774113 0,-0.2534922 -0.122282,-0.4792839 -0.366386,-0.6764445 -0.09389,-0.06572 -0.225296,-0.1499399 -0.394291,-0.2532145 L 25.469246,7.6690411 C 25.234531,7.5282121 24.88749,7.3922377 24.427449,7.2607973 23.976796,7.1199683 23.530811,7.0494407 23.089546,7.0494407 Z M 8.9632771,13.41236 c -0.646176,0 -1.0850675,0.115618 -1.3167155,0.347266 -0.231648,0.219456 -0.3477824,0.640146 -0.3477824,1.261938 v 10.168372 c 0,0.42672 0.036402,0.737687 0.1095541,0.932759 0.146304,0.463296 0.64621,0.694531 1.49965,0.694531 0.7802882,0 1.2560977,-0.164325 1.4267857,-0.493509 0.09754,-0.18288 0.152138,-0.341312 0.164331,-0.475424 0.02439,-0.134112 0.03669,-0.347663 0.03669,-0.640271 v -3.456119 h 3.584277 c 0.42672,0 0.737688,-0.03051 0.93276,-0.09147 0.463296,-0.158496 0.695048,-0.664813 0.695048,-1.518253 0,-0.780288 -0.158432,-1.261477 -0.475424,-1.444357 -0.18288,-0.09753 -0.347722,-0.152654 -0.494026,-0.164847 -0.134112,-0.02439 -0.347147,-0.03669 -0.639755,-0.03669 h -3.60288 v -1.846915 h 5.59604 c 0.292608,0 0.506159,-0.0064 0.640271,-0.0186 0.146304,-0.02438 0.31063,-0.07899 0.49351,-0.164331 0.18288,-0.09754 0.311321,-0.262379 0.384473,-0.494027 0.07315,-0.231648 0.109554,-0.542098 0.109554,-0.932242 0,-0.390144 -0.0364,-0.701112 -0.109554,-0.93276 -0.07315,-0.231648 -0.201593,-0.396491 -0.384473,-0.494027 -0.170688,-0.09753 -0.329119,-0.152137 -0.475423,-0.164331 -0.134112,-0.02439 -0.341251,-0.03669 -0.621667,-0.03669 z" /></g></g></svg>
